<?xml version="1.0" encoding="utf-8"?>
<!-- Generator: Adobe Illustrator 25.2.0, SVG Export Plug-In . SVG Version: 6.00 Build 0)  -->
<svg version="1.1" id="Layer_2" xmlns="http://www.w3.org/2000/svg" xmlns:xlink="http://www.w3.org/1999/xlink" x="0px" y="0px"
	 viewBox="0 0 1000 1000" style="enable-background:new 0 0 1000 1000;" xml:space="preserve">
<style type="text/css">
	.st0{fill:none;stroke:#000000;stroke-width:9;stroke-miterlimit:10;}
	.st1{fill:none;stroke:#000000;stroke-miterlimit:10;}
</style>
<circle class="st0" cx="500" cy="509.23" r="87.28"/>
<circle class="st0" cx="700" cy="509.23" r="87.28"/>
<circle class="st0" cx="900" cy="509.23" r="87.28"/>
<circle class="st0" cx="300" cy="509.23" r="87.28"/>
<circle class="st0" cx="100" cy="509.23" r="87.28"/>
<line class="st1" x1="400" y1="409.23" x2="400" y2="609.23"/>
<line class="st1" x1="200" y1="409.23" x2="200" y2="609.23"/>
<line class="st1" x1="600" y1="409.23" x2="600" y2="609.23"/>
<line class="st1" x1="800" y1="409.23" x2="800" y2="609.23"/>
<g>
</g>
<g>
	<path d="M68.77,546.96v-79.98h37.73c7.69,0,13.88,1.74,18.54,5.21c4.67,3.48,7,8.28,7,14.41c0,5-1.45,8.98-4.34,11.95
		c-2.89,2.97-6.41,4.77-10.55,5.39V505c2.15,0.08,4.27,0.52,6.36,1.32c2.09,0.8,4.05,1.94,5.89,3.43c1.84,1.49,3.32,3.48,4.45,5.98
		c1.13,2.5,1.7,5.31,1.7,8.44c0,4.73-1.29,8.85-3.87,12.36s-5.94,6.13-10.08,7.85c-4.14,1.72-8.75,2.58-13.83,2.58H68.77z
		 M91.68,482.62v16.05h8.09c3.28,0,5.74-0.76,7.38-2.29s2.46-3.46,2.46-5.8c0-2.38-0.83-4.31-2.49-5.77
		c-1.66-1.46-3.96-2.2-6.88-2.2H91.68z M91.68,512.62v18.69h8.91c3.87,0,6.76-0.86,8.67-2.58c1.91-1.72,2.87-4,2.87-6.86
		c0-2.81-0.94-5.06-2.81-6.74c-1.88-1.68-4.63-2.52-8.26-2.52H91.68z"/>
</g>
<g>
	<path d="M311.57,548.64h-23.14v-79.98h23.14V548.64z"/>
</g>
<g>
	<path d="M487.11,549.08h-21.27V469.1h17.58l28.59,41.07h0.88V469.1h21.27v79.98h-17.4l-28.77-41.72h-0.88V549.08z"/>
</g>
<g>
	<path d="M735.6,497.57h-22.32c-0.31-2.81-1.52-5.18-3.63-7.09c-2.11-1.91-4.94-2.87-8.5-2.87c-4.38,0-7.7,1.55-9.96,4.66
		c-2.27,3.11-3.4,7.57-3.4,13.39v8.79c0,12.42,4.65,18.63,13.95,18.63c3.83,0,6.82-1.04,8.96-3.13c2.15-2.09,3.22-4.54,3.22-7.35
		v-1.64H702.9v-15.53h32.75v15.18c0,3.2-0.4,6.28-1.2,9.23c-0.8,2.95-2.1,5.77-3.9,8.47c-1.8,2.7-4,5.03-6.62,7
		c-2.62,1.97-5.89,3.54-9.81,4.69c-3.93,1.15-8.27,1.73-13.04,1.73c-5.12,0-9.75-0.66-13.89-1.96c-4.14-1.31-7.62-3.1-10.43-5.36
		s-5.17-4.98-7.06-8.14c-1.9-3.16-3.26-6.54-4.1-10.14c-0.84-3.59-1.26-7.44-1.26-11.54v-9.14c0-7.11,1.38-13.38,4.13-18.81
		c2.75-5.43,6.94-9.73,12.57-12.89s12.36-4.75,20.21-4.75c5.58,0,10.62,0.82,15.12,2.46c4.49,1.64,8.09,3.83,10.81,6.56
		c2.71,2.73,4.79,5.77,6.24,9.11C734.87,490.45,735.6,493.94,735.6,497.57z"/>
</g>
<g>
	<path d="M862.79,512.18v-8.26c0-11.52,3.25-20.63,9.76-27.33c6.5-6.7,15.65-10.05,27.45-10.05c11.84,0,20.99,3.36,27.45,10.08
		c6.46,6.72,9.7,15.82,9.7,27.3v8.26c0,11.41-3.24,20.44-9.73,27.1c-6.48,6.66-15.62,9.99-27.42,9.99s-20.95-3.33-27.45-9.99
		C866.04,532.62,862.79,523.59,862.79,512.18z M886.46,503.63v8.67c0,5.98,1.2,10.55,3.6,13.71s5.71,4.75,9.93,4.75
		s7.52-1.58,9.9-4.75s3.57-7.73,3.57-13.71v-8.67c0-5.98-1.2-10.58-3.6-13.8S904.18,485,900,485s-7.48,1.61-9.9,4.83
		S886.46,497.65,886.46,503.63z"/>
</g>
<g>
</g>
<g>
</g>
<g>
</g>
<g>
</g>
<g>
</g>
<g>
</g>
</svg>
