<?xml version="1.0" encoding="utf-8"?>
<!-- Generator: Adobe Illustrator 25.2.0, SVG Export Plug-In . SVG Version: 6.00 Build 0)  -->
<svg version="1.1" id="Layer_1" xmlns="http://www.w3.org/2000/svg" xmlns:xlink="http://www.w3.org/1999/xlink" x="0px" y="0px"
	 viewBox="0 0 1000 1000" style="enable-background:new 0 0 1000 1000;" xml:space="preserve">
<style type="text/css">
	.st0{fill:none;stroke:#000000;stroke-miterlimit:10;}
	.st1{stroke:#000000;stroke-miterlimit:10;}
</style>
<rect y="-100" class="st0" width="200" height="1200"/>
<rect x="400" y="-100" class="st0" width="200" height="1200"/>
<rect x="200" y="-100" class="st0" width="200" height="1200"/>
<rect x="600" y="-100" class="st0" width="200" height="1200"/>
<rect x="800" y="-100" class="st0" width="200" height="1200"/>
<rect x="358.37" y="-500" transform="matrix(-1.836970e-16 1 -1 -1.836970e-16 558.3658 -358.3658)" class="st0" width="200" height="1200"/>
<rect x="358.37" y="-300" transform="matrix(-1.836970e-16 1 -1 -1.836970e-16 758.3658 -158.3659)" class="st0" width="200" height="1200"/>
<rect x="358.37" y="-100" transform="matrix(-1.836970e-16 1 -1 -1.836970e-16 958.3658 41.6341)" class="st0" width="200" height="1200"/>
<rect x="358.37" y="100" transform="matrix(-1.836970e-16 1 -1 -1.836970e-16 1158.3658 241.6341)" class="st0" width="200" height="1200"/>
<rect x="358.37" y="300" transform="matrix(-1.836970e-16 1 -1 -1.836970e-16 1358.3658 441.6342)" class="st0" width="200" height="1200"/>
<line class="st0" x1="200" y1="32.85" x2="200" y2="980.41"/>
<circle class="st1" cx="300" cy="100" r="87.28"/>
<circle class="st1" cx="500" cy="100" r="87.28"/>
<circle class="st1" cx="500" cy="300" r="87.28"/>
<circle class="st1" cx="500" cy="500" r="87.28"/>
<circle class="st1" cx="500" cy="700" r="87.28"/>
<circle class="st1" cx="500" cy="900" r="87.28"/>
<circle class="st1" cx="700" cy="100" r="87.28"/>
<circle class="st1" cx="900" cy="100" r="87.28"/>
<circle class="st1" cx="100" cy="100" r="87.28"/>
<circle class="st1" cx="700" cy="300" r="87.28"/>
<circle class="st1" cx="700" cy="500" r="87.28"/>
<circle class="st1" cx="700" cy="700" r="87.28"/>
<circle class="st1" cx="700" cy="900" r="87.28"/>
<circle class="st1" cx="900" cy="300" r="87.28"/>
<circle class="st1" cx="900" cy="500" r="87.28"/>
<circle class="st1" cx="900" cy="700" r="87.28"/>
<circle class="st1" cx="900" cy="900" r="87.28"/>
<circle class="st1" cx="300" cy="300" r="87.28"/>
<circle class="st1" cx="300" cy="500" r="87.28"/>
<circle class="st1" cx="300" cy="700" r="87.28"/>
<circle class="st1" cx="300" cy="900" r="87.28"/>
<circle class="st1" cx="100" cy="300" r="87.28"/>
<circle class="st1" cx="100" cy="500" r="87.28"/>
<circle class="st1" cx="100" cy="700" r="87.28"/>
<circle class="st1" cx="100" cy="900" r="87.28"/>
</svg>
