<?xml version="1.0" encoding="utf-8"?>
<!-- Generator: Adobe Illustrator 25.2.0, SVG Export Plug-In . SVG Version: 6.00 Build 0)  -->
<svg version="1.1" id="Layer_2" xmlns="http://www.w3.org/2000/svg" xmlns:xlink="http://www.w3.org/1999/xlink" x="0px" y="0px"
	 viewBox="0 0 1000 1000" style="enable-background:new 0 0 1000 1000;" xml:space="preserve">
<g>
	<path d="M254.46,368.48c-1.66-28.55,1.5-54.69,9.47-78.44c7.97-23.73,19.67-43.83,35.11-60.27s33.94-30.3,55.53-41.59
		c21.58-11.28,44.73-19.5,69.47-24.66c24.73-5.14,50.89-7.72,78.45-7.72c34.19,0,65.91,4.16,95.12,12.45
		c29.22,8.31,55.03,20.34,77.44,36.11c22.41,15.78,39.92,36.2,52.55,61.27s18.94,53.38,18.94,84.91c0,17.61-2.08,33.89-6.23,48.83
		s-9.22,27.47-15.19,37.59c-5.98,10.12-14.03,20.09-24.16,29.89s-19.09,17.44-26.89,22.91c-7.81,5.47-17.69,12.03-29.64,19.67
		c-14.61,8.97-25.23,15.61-31.88,19.92s-14.11,9.88-22.41,16.69c-8.31,6.81-14.03,13.03-17.19,18.67
		c-3.16,5.66-5.89,12.45-8.22,20.42s-3.48,17.11-3.48,27.39v20.91H396.91l-1.5-13.94c-5.31-39.84-1.42-73.78,11.7-101.84
		c13.11-28.06,36.11-51.72,68.98-70.98c14.59-8.62,25.47-15.25,32.61-19.91s14.86-10.62,23.17-17.94
		c8.3-7.3,14.11-14.84,17.42-22.66s4.98-16.53,4.98-26.16c0-19.25-6.23-34.03-18.69-44.33c-12.45-10.28-27.47-15.44-45.06-15.44
		c-19.59,0-35.12,6.39-46.58,19.17s-17.34,29.14-17.67,49.06H254.46z M410.1,832.91c-19.09-16.09-28.64-37.44-28.64-64
		s9.55-47.81,28.64-63.75s42.75-23.91,70.97-23.91c27.89,0,51.39,7.97,70.48,23.91s28.64,37.19,28.64,63.75s-9.55,47.91-28.64,64
		s-42.59,24.16-70.48,24.16C452.85,857.06,429.19,849,410.1,832.91z"/>
</g>
<g>
</g>
<g>
</g>
<g>
</g>
<g>
</g>
<g>
</g>
<g>
</g>
</svg>
